<svg width="22" height="22" viewBox="0 0 22 22" fill="none" xmlns="http://www.w3.org/2000/svg">
  <path className='nav-icon-path'
    d="M21.6566 13.3371C21.1611 15.1107 20.2098 16.7235 18.8975 18.0153C17.5851 19.3071 15.9574 20.2328 14.1763 20.7002C12.3951 21.1677 10.5226 21.1607 8.74504 20.6799C6.96746 20.1991 5.34674 19.2613 4.0441 17.9597C2.74146 16.6581 1.80231 15.0381 1.32006 13.2609C0.837808 11.4837 0.829273 9.61125 1.2953 7.82973C1.76133 6.04822 2.68567 4.41976 3.97639 3.10636C5.26711 1.79295 6.87921 0.840378 8.65234 0.343385C8.78225 0.301554 8.92045 0.292276 9.05479 0.316366C9.18912 0.340457 9.31549 0.397178 9.42277 0.481545C9.53005 0.565911 9.61496 0.675339 9.67004 0.80021C9.72513 0.92508 9.74869 1.06157 9.73867 1.19768C9.73839 1.26225 9.7277 1.32635 9.70703 1.38753C9.2886 2.89779 9.27828 4.49201 9.6771 6.00757C10.0759 7.52312 10.8696 8.90577 11.9772 10.0144C13.0848 11.1231 14.4667 11.9182 15.9819 12.3185C17.497 12.7187 19.0913 12.71 20.6019 12.293L20.834 12.2508C21.0175 12.2494 21.1966 12.3071 21.3447 12.4153C21.4929 12.5236 21.6023 12.6767 21.6566 12.852C21.7097 13.0093 21.7097 13.1798 21.6566 13.3371Z"
    fill="black" />
</svg>