<svg width="20" height="14" viewBox="0 0 20 14" fill="none" xmlns="http://www.w3.org/2000/svg">
  <path className='nav-icon-path'
    d="M4.00001 2H0.780006C0.410006 2 0.0400063 2.32 0.0900063 2.84L1.65001 12.83C1.65001 12.83 3.50001 5.47 3.86001 3.7C3.97001 3.17 4.47001 3 4.84001 3H10C10 3 9.30001 0.92 9.23001 0.69C9.11001 0.25 8.89001 0 8.45001 0H5.14001C4.78001 0 4.44001 0.23 4.34001 0.64C4.25001 1.04 4.00001 2 4.00001 2ZM8.88001 2H4.88001C4.88001 2 5.30001 1 5.75001 1H7.88001C8.36001 1 8.88001 2 8.88001 2ZM2.67001 13.25C2.36001 13.72 1.91001 14 1.41001 14H17.14C17.68 14 18.06 13.69 18.17 13.17C18.61 10.98 19.85 4.73 19.85 4.73C19.92 4.23 19.55 4 19.23 4H16V2.53C16 2.37 15.74 2 15.34 2H11.58C11.06 2 10.71 2.58 10.71 2.58L10 4H5.59001C5.27001 4 4.96001 4.19 4.90001 4.5C4.90001 4.5 3.31001 11.2 3.18001 11.83C3.11001 12.2 2.96001 12.82 2.67001 13.25ZM15.38 4H11C11 4 11.58 3 12.13 3H14.42C15.13 3 15.38 4 15.38 4Z"
    fill="black" />
</svg>